<svg id="Camada_1" data-name="Camada 1" xmlns="http://www.w3.org/2000/svg" viewBox="0 0 1820.29 1814"><defs><style>.cls-1{fill:#231f20;}.cls-2{fill:#040000;}.cls-3{fill:#050001;}.cls-4{fill:#060002;}</style></defs><title>arrow</title><path class="cls-1" d="M1741.37,1039.65c-98,52.43-172.65,134.84-258.47,202.87-98,77.7-193.32,158.89-289.1,239.4-44.86,37.71-89.64,75.77-131.58,116.63-40,38.94-70.24,43.41-117.49,3.09C836.1,1508.93,716.06,1429.42,609.08,1335c-97.76-86.28-203-162.83-301.2-248.17-58.46-50.79-134.77-45.9-184.78,10.19-47.55,53.33-39.7,127.81,19.15,178.4C348,1452.34,561.09,1620.2,775.72,1786.17,822,1822,863.42,1864,909.16,1900.5c69.12,55.2,117.87,47.58,185.08-10.5,127.15-109.87,258.24-215.18,387.41-322.72,134-111.57,268.83-222.21,401-336,53.72-46.25,20.11-147-59.87-190.54C1795.54,1046,1768.39,1048,1741.37,1039.65Z" transform="translate(-88.45 -124)"/><path class="cls-1" d="M1055.45,1010.92q232.56-191.22,465-382.51,166-137.11,331-275.6c64.92-54.57,74.15-128.69,24.87-185.83-49.93-57.89-114.69-56.7-185.91,0C1491.69,325,1295.06,485.53,1105.59,654.69c-9.88,8.82-26.18,11.36-34.25,21.15-47.5,57.67-88.25,52-144.08,3.4-124.42-108.31-255.67-208.77-384-312.53-82.16-66.41-163.9-133.33-246.47-199.2-14.06-11.22-30.29-21.89-50.7-16.2-22.4,13-45.49,8.64-68.64,2.74-117.45,81-118.07,145.69-5,237.46Q543.13,692.22,912.67,994.32c15.67,12.75,30.7,28.11,53.53,27.56C994.79,1008.8,1026.78,1023.35,1055.45,1010.92Z" transform="translate(-88.45 -124)"/><path class="cls-2" d="M1741.37,1039.65c26.88,18.18,54,17.06,81.37,1.12A130.4,130.4,0,0,0,1741.37,1039.65Z" transform="translate(-88.45 -124)"/><path class="cls-3" d="M1055.45,1010.92c-29.85,2.84-61.9-12.21-89.25,11C996.89,1025.82,1028.35,1036.16,1055.45,1010.92Z" transform="translate(-88.45 -124)"/><path class="cls-4" d="M177.4,154.05c23.58,16.69,46.53,17.52,68.64-2.74C222.65,139.54,200,145.66,177.4,154.05Z" transform="translate(-88.45 -124)"/></svg>