<?xml version="1.0" encoding="utf-8"?>
<!-- Generator: Adobe Illustrator 24.0.1, SVG Export Plug-In . SVG Version: 6.00 Build 0)  -->
<svg version="1.1" id="Capa_1" xmlns="http://www.w3.org/2000/svg" xmlns:xlink="http://www.w3.org/1999/xlink" x="0px" y="0px"
	 viewBox="0 0 595.28 595.28" style="enable-background:new 0 0 595.28 595.28;" xml:space="preserve">
<style type="text/css">
	.st0{fill:#BBBDBF;}
	.st1{fill:#8BC543;stroke:#006738;stroke-width:9.5702;stroke-miterlimit:10;}
	.st2{fill:#006738;}
	.st3{fill:#8BC543;}
	.st4{fill:#E6E6E7;}
	.st5{fill:#E2A540;}
	.st6{fill:#744C29;}
	.st7{fill:#D0D2D3;}
	.st8{fill:#F7F7F7;}
	.st9{fill:#E8AF2E;}
	.st10{fill:#F9CA35;}
	.st11{fill:#C38728;}
	.st12{fill:#FFFFFF;}
	.st13{fill:none;}
	.st14{fill:#221F1F;}
	.st15{font-family:'ButterflyRegular';}
	.st16{font-size:79px;}
</style>
<g>
	<g>
		<path class="st0" d="M105.52,267.54l-25.14-32.31c0,0,0.58-5.86,16.8-5.29c16.23,0.57,39.73-3.82,54.92-4.17
			c17.57-0.4,35,2.9,35,2.9l-26.27,38.87H105.52z"/>
	</g>
	<g>
		<path class="st1" d="M186.65,187.89c-15.85,27.29-31.29,54.9-39.94,84.08c-14.07-4.17-28.12-8.34-42.31-12.52
			c7.29-29.48,9.51-59.33,15.8-90.68C143.41,172.44,165.18,178.98,186.65,187.89z"/>
		<path class="st2" d="M144.23,204.36c12.59,3.61,18.98,14.35,14.67,23.29c-4.35,8.98-15.41,13.95-25.41,11.06
			c-9.95-2.92-17.02-12.96-15.51-22.61C119.52,206.49,131.63,200.83,144.23,204.36z"/>
		<path class="st2" d="M104.4,259.44c3.78,1.11,7.53,2.22,11.29,3.34c1.78-6.2-2.09-12.76-8.67-14.64
			C106.24,251.92,105.38,255.69,104.4,259.44z"/>
		<g>
			<g>
				<path class="st3" d="M134.25,216.46c-1.61-0.32-2.73,0.69-3.34,3c-0.62,2.33-0.2,3.69,1.23,4.09c0.88,0.24,1.62,0.05,2.22-0.59
					c0.62-0.63,1.5-2.01,2.69-4.12c1.19-2.11,2.57-3.53,4.15-4.23c1.58-0.7,3.39-0.77,5.39-0.18c2.33,0.68,3.82,2.07,4.42,4.1
					c0.61,2.03,0.46,4.11-0.37,6.24c-2.03,5.13-5.38,7.38-10.1,6.8c0.34-1.48,0.69-2.95,1.03-4.43c2.52,0.38,4.27-0.79,5.28-3.53
					c0.95-2.57,0.37-4.18-1.77-4.81c-0.94-0.27-1.76-0.16-2.43,0.34c-0.67,0.5-1.67,1.84-2.94,4.02c-1.28,2.18-2.6,3.63-3.97,4.37
					c-1.38,0.73-2.84,0.88-4.43,0.44c-1.69-0.48-2.98-1.55-3.84-3.22c-0.87-1.67-1.02-3.8-0.41-6.38c1.2-5.12,3.99-7.29,8.25-6.4
					C134.95,213.45,134.6,214.96,134.25,216.46z"/>
			</g>
			<path class="st3" d="M128.11,216.2c-0.34,1.4-0.68,2.8-1.01,4.2c-1.5-0.4-3.01-0.8-4.53-1.19c0.3-1.4,0.6-2.81,0.9-4.21
				C125.02,215.39,126.57,215.79,128.11,216.2z"/>
			<path class="st3" d="M155.06,223.91c-0.57,1.34-1.13,2.68-1.68,4.02c-1.47-0.45-2.93-0.89-4.4-1.32
				c0.51-1.36,1.04-2.71,1.57-4.07C152.05,223,153.56,223.45,155.06,223.91z"/>
		</g>
		<path class="st2" d="M146.05,271.77c1.14-3.72,2.37-7.43,3.67-11.11c-6.36-1.89-13.06,1.59-14.89,7.78
			C138.57,269.55,142.31,270.66,146.05,271.77z"/>
		<path class="st2" d="M185.62,187.47c-5.72-2.35-11.45-4.53-17.21-6.54c-2.79,6.33,2.22,13.7,11.28,17.07
			C181.67,194.49,183.66,190.98,185.62,187.47z"/>
		<path class="st2" d="M120.2,168.76c-0.76,4.01-1.49,8-2.17,11.95c9.58,1.74,18.42-1.76,20.39-8.43
			C132.43,170.91,126.35,169.73,120.2,168.76z"/>
		<path class="st2" d="M131.32,246.1c2.23,0.65,3.49,2.89,2.85,5c-0.65,2.11-2.92,3.3-5.08,2.66c-2.17-0.64-3.44-2.87-2.86-4.99
			C126.81,246.64,129.09,245.45,131.32,246.1z"/>
		<path class="st2" d="M149.55,188.86c3.09,0.88,4.87,3.4,4.04,5.56c-0.85,2.16-3.87,3.19-6.8,2.37c-2.91-0.83-4.77-3.24-4.1-5.46
			C143.38,189.12,146.46,187.98,149.55,188.86z"/>
	</g>
	<g>
		<path class="st1" d="M176.51,172.83c-11.78,29.28-23.1,58.82-27.48,88.93c-14.52-2.11-29.03-4.23-43.67-6.34
			c2.99-30.22,0.92-60.09,2.65-92.01C131.51,163.74,153.99,167.1,176.51,172.83z"/>
		<path class="st2" d="M136.88,195.21c12.98,1.76,20.84,11.48,17.85,20.94c-3.01,9.52-13.25,16.02-23.55,14.59
			c-10.27-1.46-18.7-10.39-18.59-20.16C112.74,200.86,123.91,193.52,136.88,195.21z"/>
		<path class="st2" d="M105.36,255.43c3.89,0.56,7.77,1.12,11.65,1.68c0.87-6.39-3.9-12.33-10.68-13.24
			C106.1,247.72,105.79,251.58,105.36,255.43z"/>
		<g>
			<g>
				<path class="st3" d="M128.74,208.61c-1.64-0.08-2.61,1.08-2.88,3.45c-0.27,2.4,0.34,3.67,1.81,3.86c0.9,0.11,1.6-0.19,2.11-0.9
					c0.52-0.71,1.19-2.2,2.06-4.46c0.88-2.26,2.04-3.86,3.51-4.78c1.46-0.92,3.25-1.25,5.31-0.95c2.41,0.34,4.08,1.5,4.97,3.42
					c0.9,1.92,1.05,4,0.53,6.22c-1.27,5.37-4.27,8.07-9.02,8.18c0.13-1.51,0.25-3.02,0.38-4.53c2.55,0.02,4.11-1.39,4.72-4.26
					c0.57-2.68-0.23-4.19-2.44-4.5c-0.98-0.14-1.77,0.09-2.36,0.68c-0.59,0.59-1.39,2.06-2.34,4.4c-0.95,2.34-2.05,3.97-3.31,4.9
					c-1.26,0.92-2.68,1.27-4.32,1.06c-1.75-0.23-3.17-1.11-4.27-2.64c-1.1-1.53-1.55-3.61-1.32-6.25c0.45-5.23,2.9-7.78,7.24-7.52
					C129,205.54,128.87,207.08,128.74,208.61z"/>
			</g>
			<path class="st3" d="M122.63,209.24c-0.14,1.44-0.27,2.87-0.41,4.3c-1.54-0.18-3.09-0.36-4.65-0.53c0.09-1.43,0.19-2.86,0.29-4.3
				C119.45,208.88,121.05,209.06,122.63,209.24z"/>
			<path class="st3" d="M150.41,213.01c-0.37,1.41-0.73,2.81-1.08,4.22c-1.52-0.23-3.03-0.46-4.54-0.68
				c0.32-1.41,0.64-2.83,0.97-4.25C147.3,212.54,148.85,212.77,150.41,213.01z"/>
		</g>
		<path class="st2" d="M148.34,261.67c0.6-3.85,1.28-7.69,2.05-11.52c-6.57-0.96-12.69,3.44-13.62,9.83
			C140.62,260.54,144.49,261.1,148.34,261.67z"/>
		<path class="st2" d="M175.44,172.57c-6-1.51-11.98-2.84-17.97-4c-1.85,6.67,4.16,13.25,13.61,15.27
			C172.53,180.07,173.99,176.31,175.44,172.57z"/>
		<path class="st2" d="M108.01,163.42c-0.19,4.08-0.33,8.13-0.44,12.14c9.73,0.35,17.97-4.37,18.98-11.26
			C120.42,163.8,114.24,163.5,108.01,163.42z"/>
		<path class="st2" d="M130.09,238.37c2.3,0.33,3.87,2.36,3.53,4.54c-0.34,2.18-2.41,3.68-4.65,3.36c-2.23-0.32-3.81-2.34-3.55-4.53
			C125.7,239.56,127.79,238.05,130.09,238.37z"/>
		<path class="st2" d="M139.93,179.11c3.19,0.43,5.31,2.66,4.79,4.92c-0.52,2.25-3.38,3.71-6.39,3.31c-3-0.4-5.18-2.53-4.83-4.81
			C133.86,180.25,136.74,178.68,139.93,179.11z"/>
	</g>
	<g>
		<path class="st4" d="M105.52,267.54l-25.14-32.31c0,0,0.58-10,16.8-9.43c16.23,0.57,33.53,7.55,48.71,8.26
			c21.75,1.02,41.21-5.39,41.21-5.39l-26.27,38.87H105.52z"/>
		<path class="st4" d="M192.77,326.93c-8.08-19.86-20.49-40.61-31.94-59.4h-55.31c-11.32,18.79-22.75,39.8-31.69,59.4
			c-19.08,41.81-8.21,55.59,14.19,65.46c16.61,7.33,73.96,7.33,90.57,0C200.98,382.52,206.63,361,192.77,326.93z"/>
		<g>
			<g>
				<path class="st5" d="M143.27,322.51c-0.33-3.98-4-5.98-11.03-6c-7.04-0.03-10.58,1.84-10.59,5.6c0,2.3,1.12,3.97,3.39,5.01
					c2.27,1.05,6.83,2.24,13.68,3.57c6.86,1.34,11.89,3.55,15.09,6.65c3.2,3.09,4.81,7.11,4.79,12.05
					c-0.02,5.76-2.61,10.21-7.78,13.33c-5.15,3.12-11.06,4.67-17.72,4.65c-16.06-0.06-25.2-6.24-27.4-18.56l13.3-1.03
					c0.96,6.46,5.7,9.7,14.22,9.73c7.98,0.03,11.98-2.66,12-8.07c0-2.4-0.95-4.19-2.89-5.36c-1.93-1.18-6.47-2.48-13.62-3.9
					c-7.14-1.43-12.3-3.57-15.47-6.45c-3.16-2.88-4.74-6.46-4.73-10.73c0.02-4.59,2.07-8.47,6.16-11.63
					c4.09-3.16,10.04-4.73,17.83-4.7c15.43,0.05,23.51,5.19,24.22,15.42L143.27,322.51z"/>
			</g>
			<polygon class="st5" points="139.4,307.93 126.74,307.89 126.77,296.37 139.45,296.41 			"/>
			
				<rect x="127.09" y="364.58" transform="matrix(3.779342e-03 -1 1 3.779342e-03 -238.5538 502.3636)" class="st5" width="11.52" height="12.67"/>
		</g>
		<path class="st6" d="M165.95,268.73c0,1.1-1.11,2-2.47,2h-61.4c-1.37,0-2.47-0.9-2.47-2v-1.64c0-1.1,1.11-2,2.47-2h61.4
			c1.36,0,2.47,0.9,2.47,2V268.73z"/>
		<path class="st7" d="M148.89,389.04c10.22,7.36,28.46,1.1,35.22-3.68c9.39-6.66,13.69-19.94,12.61-29.44
			c-1.08-9.51-2.57-15.94-6.41-24.78c-1.36-3.14,4.66,9.59-2.66,26.75c-5.46,12.81-21.26,16.07-31.73,17.25
			C148.61,375.96,138.72,381.72,148.89,389.04z"/>
		<path class="st7" d="M142.68,263.39c0,0,19.34-7.03,28.89-16.86c10.79-11.1-10.61,16.86-10.61,16.86H142.68z"/>
		<path class="st8" d="M87.79,237.58c0,0,0.37,0.28,0.96,0.81c0.6,0.53,1.42,1.3,2.37,2.25c1.9,1.92,4.24,4.61,6.4,7.45
			c2.16,2.84,4.13,5.81,5.47,8.16c0.67,1.17,1.19,2.17,1.54,2.89c0.35,0.71,0.52,1.14,0.52,1.14s-0.37-0.28-0.96-0.81
			c-0.6-0.53-1.42-1.3-2.37-2.25c-2.05-2.07-4.15-4.49-6.39-7.45c-2.16-2.84-4.13-5.82-5.47-8.16c-0.67-1.17-1.19-2.17-1.54-2.89
			C87.97,238.01,87.79,237.58,87.79,237.58z"/>
		<path class="st8" d="M107.12,274.78c0,0-0.31,0.94-0.91,2.56c-0.6,1.61-1.49,3.91-2.63,6.62c-2.25,5.45-5.54,12.55-9.07,19.54
			c-3.54,6.98-7.32,13.85-10.38,18.88c-1.51,2.53-2.84,4.6-3.78,6.04c-0.94,1.44-1.52,2.25-1.52,2.25s0.31-0.94,0.91-2.56
			c0.6-1.62,1.48-3.91,2.63-6.62c2.24-5.45,5.54-12.55,9.07-19.54c3.54-6.98,7.33-13.84,10.39-18.87c1.51-2.53,2.84-4.6,3.78-6.04
			C106.55,275.58,107.12,274.78,107.12,274.78z"/>
	</g>
	<g>
		<g>
			<path class="st9" d="M104.41,379.22c-4.16,14.04-18.91,22.06-32.96,17.9c-14.04-4.16-22.06-18.91-17.9-32.96
				c4.16-14.04,18.91-22.06,32.96-17.9C100.55,350.42,108.57,365.18,104.41,379.22z"/>
			<path class="st10" d="M99.81,377.86c-3.41,11.51-15.5,18.07-27,14.67c-11.5-3.41-18.07-15.49-14.66-27
				c3.41-11.51,15.5-18.07,27-14.67C96.66,354.27,103.22,366.35,99.81,377.86z"/>
			<g>
				<g>
					<path class="st11" d="M85.21,367.31c0.34-1.66-0.91-2.92-3.77-3.78c-2.87-0.86-4.54-0.52-5,1c-0.28,0.94-0.02,1.76,0.78,2.45
						c0.8,0.7,2.52,1.74,5.15,3.11c2.64,1.38,4.42,2.88,5.35,4.54c0.93,1.65,1.1,3.48,0.5,5.49c-0.7,2.35-2.3,3.85-4.78,4.5
						c-2.48,0.65-5.08,0.57-7.79-0.24c-6.55-1.96-9.53-5.59-8.94-10.88l5.55,1.19c-0.39,2.75,1.16,4.65,4.63,5.69
						c3.25,0.97,5.21,0.36,5.87-1.84c0.29-0.98,0.12-1.82-0.53-2.54c-0.64-0.72-2.34-1.79-5.09-3.24c-2.74-1.44-4.59-2.94-5.53-4.5
						c-0.94-1.56-1.15-3.21-0.63-4.95c0.56-1.87,1.87-3.21,3.92-4c2.05-0.8,4.67-0.72,7.84,0.24c6.29,1.89,8.96,4.96,8.02,9.22
						L85.21,367.31z"/>
				</g>
				
					<rect x="81.06" y="355.08" transform="matrix(0.2875 -0.9578 0.9578 0.2875 -283.1685 334.9138)" class="st11" width="4.9" height="5.39"/>
				
					<rect x="72.66" y="383.11" transform="matrix(0.2876 -0.9578 0.9578 0.2876 -315.9943 346.7885)" class="st11" width="4.9" height="5.39"/>
			</g>
		</g>
		<g>
			<g>
				<path class="st12" d="M58.48,366.02c0-2.08,0.92-5.25,1.61-5.94c0.67-0.67,3.85-1.61,5.94-1.61c-2.08,0-5.14-0.82-5.94-1.61
					c-0.83-0.83-1.61-3.85-1.61-5.94c0,2.14-0.81,5.13-1.71,6.04c-0.94,0.94-3.8,1.51-5.83,1.51c2.08,0,5.15,0.83,5.94,1.61
					C57.67,360.87,58.48,363.93,58.48,366.02z"/>
			</g>
			<g>
				<path class="st12" d="M63.52,367.18c0-0.74,0.33-1.87,0.57-2.11c0.24-0.24,1.37-0.57,2.11-0.57c-0.74,0-1.83-0.29-2.11-0.57
					c-0.29-0.29-0.57-1.37-0.57-2.11c0,0.76-0.29,1.83-0.61,2.15c-0.33,0.33-1.35,0.54-2.08,0.54c0.74,0,1.84,0.29,2.11,0.57
					C63.23,365.35,63.52,366.44,63.52,367.18z"/>
			</g>
			<g>
				<path class="st12" d="M53.69,372.86c0-1.03,0.45-2.59,0.79-2.93c0.33-0.33,1.9-0.79,2.93-0.79c-1.03,0-2.54-0.4-2.93-0.79
					c-0.41-0.41-0.79-1.9-0.79-2.93c0,1.06-0.4,2.54-0.84,2.98c-0.46,0.46-1.88,0.74-2.88,0.74c1.03,0,2.55,0.41,2.93,0.79
					C53.29,370.32,53.69,371.84,53.69,372.86z"/>
			</g>
		</g>
	</g>
</g>
<rect x="220.31" y="212.88" class="st13" width="325.01" height="159.99"/>
<text transform="matrix(1 0 0 1 220.3076 271.3385)"><tspan x="0" y="0" class="st14 st15 st16">Conversor</tspan><tspan x="0" y="94.8" class="st14 st15 st16">de Moedas</tspan></text>
</svg>
