<?xml version="1.0" encoding="utf-8"?>
<!-- Generator: Adobe Illustrator 24.0.1, SVG Export Plug-In . SVG Version: 6.00 Build 0)  -->
<svg version="1.1" id="Capa_1" xmlns="http://www.w3.org/2000/svg" xmlns:xlink="http://www.w3.org/1999/xlink" x="0px" y="0px"
	 viewBox="0 0 595.28 595.28" style="enable-background:new 0 0 595.28 595.28;" xml:space="preserve">
<style type="text/css">
	.st0{fill:#BBBDBF;}
	.st1{fill:#8BC543;stroke:#006738;stroke-width:9.5702;stroke-miterlimit:10;}
	.st2{fill:#006738;}
	.st3{fill:#8BC543;}
	.st4{fill:#E6E6E7;}
	.st5{fill:#E2A540;}
	.st6{fill:#744C29;}
	.st7{fill:#D0D2D3;}
	.st8{fill:#F7F7F7;}
	.st9{fill:#E8AF2E;}
	.st10{fill:#F9CA35;}
	.st11{fill:#C38728;}
	.st12{fill:#FFFFFF;}
</style>
<g>
	<path class="st0" d="M246.18,273.65l-44.52-57.22c0,0,1.02-10.38,29.76-9.37c28.74,1,70.36-6.77,97.27-7.38
		c31.12-0.71,61.98,5.13,61.98,5.13l-46.53,68.85H246.18z"/>
</g>
<g>
	<path class="st1" d="M389.88,132.58c-28.08,48.33-55.43,97.23-70.73,148.92c-24.92-7.39-49.81-14.77-74.94-22.18
		c12.91-52.21,16.85-105.09,27.98-160.62C313.3,105.22,351.85,116.8,389.88,132.58z"/>
	<path class="st2" d="M314.74,161.75c22.29,6.39,33.62,25.42,25.98,41.24c-7.7,15.91-27.29,24.71-45,19.59
		c-17.62-5.17-30.14-22.95-27.47-40.05C270.98,165.52,292.43,155.5,314.74,161.75z"/>
	<path class="st2" d="M244.21,259.32c6.69,1.97,13.35,3.94,19.99,5.91c3.14-10.99-3.7-22.6-15.36-25.93
		C247.46,246,245.93,252.67,244.21,259.32z"/>
	<g>
		<g>
			<path class="st3" d="M297.06,183.19c-2.86-0.57-4.84,1.22-5.91,5.32c-1.09,4.13-0.35,6.53,2.19,7.24
				c1.56,0.42,2.87,0.09,3.93-1.04c1.09-1.12,2.65-3.55,4.76-7.3c2.1-3.74,4.55-6.25,7.35-7.5c2.79-1.24,6-1.36,9.55-0.32
				c4.13,1.21,6.77,3.66,7.84,7.26c1.08,3.6,0.82,7.27-0.66,11.04c-3.59,9.09-9.52,13.07-17.88,12.05c0.6-2.62,1.21-5.23,1.82-7.85
				c4.46,0.68,7.56-1.4,9.35-6.26c1.68-4.56,0.65-7.41-3.14-8.52c-1.67-0.49-3.11-0.29-4.3,0.6c-1.19,0.88-2.96,3.26-5.21,7.12
				c-2.26,3.86-4.61,6.44-7.04,7.74c-2.44,1.3-5.03,1.55-7.85,0.77c-3-0.85-5.27-2.75-6.81-5.71c-1.54-2.96-1.82-6.73-0.73-11.29
				c2.12-9.07,7.07-12.91,14.61-11.34C298.31,177.86,297.69,180.52,297.06,183.19z"/>
		</g>
		<path class="st3" d="M286.19,182.72c-0.6,2.48-1.21,4.96-1.8,7.43c-2.66-0.71-5.34-1.41-8.03-2.11c0.53-2.49,1.07-4.97,1.59-7.46
			C280.73,181.29,283.47,182,286.19,182.72z"/>
		<path class="st3" d="M333.94,196.39c-1,2.37-1.99,4.75-2.97,7.12c-2.6-0.79-5.2-1.57-7.79-2.34c0.91-2.4,1.84-4.8,2.78-7.2
			C328.61,194.77,331.27,195.57,333.94,196.39z"/>
	</g>
	<path class="st2" d="M317.97,281.15c2.03-6.6,4.2-13.15,6.51-19.67c-11.27-3.35-23.12,2.82-26.37,13.78
		C304.72,277.22,311.34,279.19,317.97,281.15z"/>
	<path class="st2" d="M388.06,131.84c-10.13-4.17-20.28-8.03-30.49-11.58c-4.94,11.21,3.93,24.27,19.98,30.23
		C381.06,144.27,384.59,138.05,388.06,131.84z"/>
	<path class="st2" d="M272.19,98.7c-1.35,7.11-2.63,14.16-3.85,21.17c16.96,3.08,32.62-3.11,36.12-14.93
		C293.84,102.51,283.08,100.42,272.19,98.7z"/>
	<path class="st2" d="M291.88,235.68c3.95,1.16,6.19,5.12,5.04,8.85c-1.15,3.73-5.16,5.85-9,4.72c-3.83-1.13-6.1-5.08-5.07-8.84
		C283.89,236.65,287.93,234.53,291.88,235.68z"/>
	<path class="st2" d="M324.16,134.3c5.48,1.56,8.63,6.02,7.15,9.84c-1.5,3.82-6.86,5.64-12.04,4.19c-5.16-1.46-8.44-5.74-7.26-9.67
		C313.23,134.76,318.69,132.74,324.16,134.3z"/>
</g>
<g>
	<path class="st1" d="M371.92,105.91c-20.86,51.86-40.92,104.17-48.67,157.52c-25.72-3.74-51.41-7.49-77.34-11.22
		c5.3-53.52,1.62-106.43,4.69-162.97C292.21,89.8,332.03,95.75,371.92,105.91z"/>
	<path class="st2" d="M301.73,145.55c22.99,3.12,36.91,20.34,31.62,37.09c-5.33,16.85-23.47,28.37-41.72,25.83
		c-18.18-2.59-33.12-18.4-32.93-35.7C258.96,155.55,278.76,142.56,301.73,145.55z"/>
	<path class="st2" d="M245.9,252.21c6.89,0.99,13.76,1.99,20.63,2.98c1.54-11.32-6.9-21.83-18.91-23.46
		C247.21,238.56,246.66,245.38,245.9,252.21z"/>
	<g>
		<g>
			<path class="st3" d="M287.31,169.29c-2.91-0.15-4.62,1.91-5.09,6.12c-0.49,4.24,0.6,6.51,3.21,6.85c1.59,0.2,2.84-0.33,3.74-1.6
				c0.92-1.26,2.11-3.89,3.66-7.9c1.55-4,3.62-6.83,6.21-8.47c2.59-1.63,5.75-2.21,9.4-1.69c4.26,0.6,7.23,2.65,8.8,6.06
				c1.59,3.41,1.85,7.08,0.93,11.02c-2.25,9.51-7.56,14.3-15.97,14.49c0.22-2.67,0.45-5.34,0.68-8.02c4.52,0.03,7.29-2.47,8.36-7.54
				c1.01-4.74-0.42-7.42-4.32-7.98c-1.73-0.24-3.13,0.16-4.17,1.21c-1.05,1.05-2.46,3.66-4.14,7.79c-1.68,4.15-3.63,7.03-5.86,8.67
				c-2.23,1.64-4.75,2.26-7.66,1.88c-3.09-0.41-5.61-1.96-7.56-4.67c-1.95-2.71-2.75-6.4-2.33-11.08
				c0.79-9.27,5.14-13.78,12.83-13.32C287.78,163.85,287.54,166.57,287.31,169.29z"/>
		</g>
		<path class="st3" d="M276.48,170.39c-0.24,2.54-0.48,5.08-0.72,7.61c-2.73-0.32-5.47-0.63-8.24-0.94
			c0.16-2.53,0.34-5.07,0.51-7.61C270.86,169.76,273.68,170.07,276.48,170.39z"/>
		<path class="st3" d="M325.69,177.08c-0.65,2.49-1.3,4.98-1.92,7.47c-2.69-0.41-5.37-0.81-8.05-1.21c0.56-2.51,1.13-5.01,1.72-7.52
			C320.19,176.24,322.93,176.65,325.69,177.08z"/>
	</g>
	<path class="st2" d="M322.03,263.26c1.07-6.82,2.27-13.62,3.63-20.4c-11.63-1.7-22.48,6.1-24.13,17.41
		C308.36,261.27,315.2,262.26,322.03,263.26z"/>
	<path class="st2" d="M370.02,105.44c-10.63-2.67-21.22-5.04-31.83-7.09c-3.28,11.81,7.36,23.46,24.1,27.05
		C364.87,118.74,367.47,112.08,370.02,105.44z"/>
	<path class="st2" d="M250.59,89.24c-0.33,7.23-0.59,14.39-0.79,21.5c17.23,0.61,31.83-7.75,33.62-19.94
		C272.57,89.92,261.62,89.38,250.59,89.24z"/>
	<path class="st2" d="M289.7,221.99c4.08,0.58,6.86,4.18,6.25,8.04c-0.61,3.85-4.27,6.53-8.23,5.96c-3.95-0.56-6.76-4.15-6.28-8.02
		C281.93,224.09,285.63,221.42,289.7,221.99z"/>
	<path class="st2" d="M307.13,117.03c5.65,0.76,9.41,4.72,8.48,8.71c-0.93,3.99-5.98,6.57-11.32,5.87c-5.32-0.7-9.17-4.48-8.56-8.52
		C296.37,119.05,301.49,116.27,307.13,117.03z"/>
</g>
<g>
	<path class="st4" d="M246.18,273.65l-44.52-57.22c0,0,1.02-17.71,29.76-16.71c28.74,1,59.38,13.37,86.27,14.62
		c38.52,1.8,72.99-9.54,72.99-9.54l-46.53,68.85H246.18z"/>
	<path class="st4" d="M400.72,378.86c-14.3-35.17-36.3-71.92-56.58-105.2h-97.96c-20.06,33.28-40.29,70.5-56.13,105.2
		c-33.8,74.05-14.54,98.45,25.12,115.95c29.42,12.98,131,12.98,160.42,0C415.26,477.31,425.26,439.19,400.72,378.86z"/>
	<g>
		<g>
			<path class="st5" d="M313.05,371.01c-0.59-7.05-7.09-10.59-19.53-10.63c-12.48-0.05-18.73,3.27-18.76,9.91
				c-0.01,4.08,1.98,7.04,6,8.88c4.02,1.86,12.1,3.97,24.24,6.33c12.15,2.38,21.05,6.29,26.72,11.78
				c5.67,5.47,8.52,12.59,8.48,21.34c-0.03,10.2-4.62,18.08-13.77,23.6c-9.13,5.53-19.6,8.26-31.38,8.23
				c-28.45-0.11-44.63-11.05-48.53-32.87l23.56-1.82c1.7,11.44,10.1,17.19,25.18,17.24c14.14,0.05,21.22-4.71,21.26-14.3
				c0.01-4.24-1.68-7.41-5.12-9.5c-3.42-2.09-11.47-4.39-24.12-6.91c-12.65-2.53-21.79-6.33-27.4-11.42
				c-5.6-5.11-8.39-11.44-8.37-19.01c0.03-8.13,3.67-15,10.92-20.6c7.25-5.61,17.78-8.38,31.58-8.33
				c27.34,0.09,41.64,9.2,42.89,27.31L313.05,371.01z"/>
		</g>
		<polygon class="st5" points="306.2,345.2 283.77,345.12 283.83,324.72 306.27,324.79 		"/>
		<polygon class="st5" points="305.79,467 283.35,466.91 283.41,446.5 305.85,446.58 		"/>
	</g>
	<path class="st6" d="M353.21,275.78c0,1.95-1.96,3.54-4.37,3.54H240.08c-2.42,0-4.38-1.59-4.38-3.54v-2.91
		c0-1.95,1.96-3.54,4.38-3.54h108.76c2.41,0,4.37,1.59,4.37,3.54V275.78z"/>
	<path class="st7" d="M323.01,488.86c18.1,13.04,50.41,1.95,62.38-6.53c16.63-11.8,24.25-35.31,22.34-52.14
		c-1.92-16.84-4.56-28.23-11.35-43.9c-2.41-5.57,8.25,16.98-4.71,47.37c-9.67,22.68-37.65,28.47-56.19,30.56
		C322.5,465.69,304.99,475.89,323.01,488.86z"/>
	<path class="st7" d="M312,266.31c0,0,34.26-12.45,51.18-29.86c19.11-19.66-18.79,29.86-18.79,29.86H312z"/>
	<path class="st8" d="M214.79,220.59c0,0,0.65,0.5,1.7,1.44c1.06,0.93,2.52,2.3,4.2,3.99c3.36,3.39,7.51,8.17,11.33,13.2
		c3.82,5.02,7.32,10.3,9.69,14.44c1.18,2.07,2.11,3.85,2.72,5.12c0.62,1.27,0.93,2.02,0.93,2.02s-0.65-0.5-1.7-1.43
		c-1.06-0.93-2.52-2.3-4.2-3.99c-3.63-3.66-7.35-7.96-11.32-13.2c-3.82-5.03-7.31-10.3-9.68-14.45c-1.19-2.07-2.11-3.85-2.72-5.12
		C215.1,221.35,214.79,220.59,214.79,220.59z"/>
	<path class="st8" d="M249.02,286.48c0,0-0.55,1.67-1.61,4.53c-1.07,2.86-2.63,6.93-4.66,11.73c-3.98,9.65-9.81,22.24-16.07,34.61
		c-6.27,12.37-12.96,24.52-18.39,33.43c-2.67,4.48-5.03,8.14-6.7,10.69c-1.67,2.55-2.7,3.98-2.7,3.98s0.54-1.67,1.61-4.53
		c1.07-2.86,2.63-6.93,4.65-11.73c3.97-9.65,9.81-22.24,16.07-34.61c6.27-12.37,12.97-24.52,18.4-33.43
		c2.67-4.48,5.02-8.14,6.7-10.7C248,287.9,249.02,286.48,249.02,286.48z"/>
</g>
<g>
	<g>
		<path class="st9" d="M244.22,471.47c-7.37,24.87-33.5,39.07-58.37,31.7c-24.87-7.36-39.07-33.5-31.7-58.37
			c7.36-24.87,33.5-39.07,58.37-31.7C237.39,420.46,251.58,446.6,244.22,471.47z"/>
		<path class="st10" d="M236.08,469.06c-6.03,20.38-27.45,32.01-47.82,25.97c-20.38-6.03-32.01-27.44-25.97-47.82
			c6.03-20.38,27.45-32.01,47.82-25.98C230.48,427.27,242.11,448.68,236.08,469.06z"/>
		<g>
			<g>
				<path class="st11" d="M210.2,450.37c0.61-2.95-1.61-5.18-6.68-6.7c-5.08-1.53-8.04-0.93-8.85,1.78
					c-0.49,1.66-0.04,3.11,1.37,4.35c1.41,1.24,4.46,3.08,9.12,5.51c4.67,2.44,7.83,5.11,9.48,8.03c1.65,2.92,1.95,6.17,0.88,9.73
					c-1.24,4.16-4.07,6.82-8.47,7.97c-4.39,1.15-9,1-13.8-0.43c-11.59-3.48-16.88-9.9-15.83-19.27l9.83,2.1
					c-0.69,4.88,2.05,8.24,8.19,10.08c5.76,1.73,9.23,0.64,10.4-3.27c0.51-1.73,0.21-3.23-0.94-4.49c-1.14-1.27-4.15-3.18-9.01-5.73
					c-4.85-2.56-8.13-5.22-9.8-7.97c-1.67-2.76-2.04-5.68-1.12-8.76c1-3.31,3.31-5.68,6.94-7.09c3.64-1.41,8.27-1.27,13.89,0.42
					c11.14,3.34,15.88,8.78,14.2,16.32L210.2,450.37z"/>
			</g>
			
				<rect x="202.86" y="428.71" transform="matrix(0.2875 -0.9578 0.9578 0.2875 -267.5484 507.329)" class="st11" width="8.68" height="9.55"/>
			
				<rect x="187.98" y="478.35" transform="matrix(0.2876 -0.9578 0.9578 0.2876 -325.7031 528.3824)" class="st11" width="8.68" height="9.55"/>
		</g>
	</g>
	<g>
		<g>
			<path class="st12" d="M162.87,448.08c0-3.69,1.63-9.3,2.85-10.52c1.19-1.19,6.83-2.85,10.51-2.85c-3.69,0-9.11-1.44-10.51-2.84
				c-1.47-1.47-2.85-6.83-2.85-10.52c0,3.78-1.43,9.09-3.03,10.7c-1.66,1.66-6.74,2.67-10.33,2.67c3.69,0,9.13,1.46,10.51,2.85
				C161.43,438.96,162.87,444.39,162.87,448.08z"/>
		</g>
		<g>
			<path class="st12" d="M171.79,450.15c0-1.31,0.58-3.31,1.01-3.74c0.42-0.42,2.43-1.01,3.74-1.01c-1.31,0-3.24-0.51-3.74-1.01
				c-0.52-0.52-1.01-2.43-1.01-3.74c0,1.35-0.51,3.24-1.08,3.81c-0.59,0.59-2.4,0.95-3.68,0.95c1.31,0,3.25,0.52,3.74,1.01
				C171.28,446.9,171.79,448.83,171.79,450.15z"/>
		</g>
		<g>
			<path class="st12" d="M154.38,460.21c0-1.82,0.8-4.59,1.41-5.2c0.59-0.59,3.37-1.41,5.19-1.41c-1.82,0-4.5-0.71-5.19-1.4
				c-0.73-0.73-1.41-3.37-1.41-5.2c0,1.87-0.7,4.49-1.5,5.29c-0.82,0.82-3.33,1.32-5.11,1.32c1.83,0,4.51,0.72,5.2,1.41
				C153.67,455.71,154.38,458.39,154.38,460.21z"/>
		</g>
	</g>
</g>
</svg>
