<svg id="Layer_1" data-name="Layer 1" xmlns="http://www.w3.org/2000/svg" viewBox="0 0 2337.39 1906.84"><defs><style>.cls-1{fill:#fae0b2;}.cls-2{fill:#f48c7f;}.cls-3{fill:#f47458;}.cls-4{fill:#f7cc7f;}.cls-5{fill:#fff;}.cls-6{fill:#466eb6;}.cls-7{fill:#f7a491;}.cls-8{fill:#184655;}.cls-9{fill:#b75742;}.cls-10{fill:#008346;}.cls-11{fill:#f8a492;}</style></defs><title>man</title><path class="cls-1" d="M370.5,1483.36l-24.44-13.86a135.92,135.92,0,0,1-23,27.69,17.09,17.09,0,0,1-23.38-.33l-.78-.75a17.06,17.06,0,0,1,.44-25A99.31,99.31,0,0,0,320,1445.89c8.32-14.67,8.35-27.91-1.94-33.75-9.78-5.54-20.62-.81-37.85,14.58-24.87,22.28-48.38,33.76-73.34,19.61-22.64-12.83-31.34-38.85-21.14-69.44L161.3,1363l14.3-25.22,22.64,12.84a126.42,126.42,0,0,1,16.7-21.55,17.07,17.07,0,0,1,24-.27h0a17.09,17.09,0,0,1,0,24.58,91.09,91.09,0,0,0-16,20.79c-9.48,16.72-5.34,26.21,1.86,30.29,8.49,4.82,19-1.12,39.63-18.32,28.17-24.49,49.32-28.82,72.47-15.69,22.9,13,33.26,40.28,21.63,72.79l26.24,14.88Z" transform="translate(-161.3 -58.58)"/><path class="cls-2" d="M1822.09,1948.2H1309.25a29.61,29.61,0,0,1-29.61-29.61h0a29.62,29.62,0,0,1,29.61-29.62h512.84a29.62,29.62,0,0,1,29.61,29.62h0A29.61,29.61,0,0,1,1822.09,1948.2Z" transform="translate(-161.3 -58.58)"/><path class="cls-3" d="M1911.78,1890.73H1399a29.62,29.62,0,0,1-29.62-29.61h0a29.62,29.62,0,0,1,29.62-29.61h512.83a29.61,29.61,0,0,1,29.61,29.61h0A29.61,29.61,0,0,1,1911.78,1890.73Z" transform="translate(-161.3 -58.58)"/><path class="cls-2" d="M1840,1836.29H1327.19a29.61,29.61,0,0,1-29.61-29.61h0a29.61,29.61,0,0,1,29.61-29.61H1840a29.62,29.62,0,0,1,29.62,29.61h0A29.62,29.62,0,0,1,1840,1836.29Z" transform="translate(-161.3 -58.58)"/><path class="cls-3" d="M1780.23,1777.32H1267.39a29.61,29.61,0,0,1-29.61-29.61h0a29.62,29.62,0,0,1,29.61-29.62h512.84a29.62,29.62,0,0,1,29.61,29.62h0A29.61,29.61,0,0,1,1780.23,1777.32Z" transform="translate(-161.3 -58.58)"/><circle class="cls-1" cx="1725.78" cy="1650.43" r="256.41"/><circle class="cls-4" cx="1887.09" cy="1709.01" r="215.16" transform="translate(-817.04 1776.35) rotate(-45)"/><path class="cls-5" d="M1820.47,1847.16l12.25-33.77a174,174,0,0,1-39.81-23,21.85,21.85,0,0,1-4.59-29.54l.78-1.15a21.82,21.82,0,0,1,31.66-4.79,127.21,127.21,0,0,0,36.15,20.62c20.26,7.35,37,4.55,42.12-9.66,4.89-13.51-3.39-26.17-26.47-44.59-33.4-26.59-52.9-53.77-40.4-88.25,11.34-31.28,42.27-47.82,83-41.49l12.25-33.77,34.83,12.63-11.34,31.28a161.7,161.7,0,0,1,30.74,16.44,21.83,21.83,0,0,1,5.47,30.21h0a21.84,21.84,0,0,1-31,5.3,116.17,116.17,0,0,0-29.62-15.75c-23.1-8.37-34.17-1.13-37.78,8.83-4.25,11.73,5.48,23.7,31.57,46,36.89,30.27,46.86,56,35.26,88-11.47,31.64-43.66,50.54-87.12,42.82l-13.14,36.26Z" transform="translate(-161.3 -58.58)"/><polygon class="cls-6" points="1711.34 304.95 1699.72 333.92 1651.06 320.37 1628.85 360.62 1590.77 356.43 1588.65 375.71 1639.58 381.3 1660.63 343.16 1711.25 357.25 1728.73 313.67 1711.34 304.95"/><path class="cls-5" d="M2045.72,1139.33l12-29.68A155.58,155.58,0,0,1,2023,1087.9a19.48,19.48,0,0,1-3.16-26.45l.73-1a19.44,19.44,0,0,1,28.34-3.27,113.38,113.38,0,0,0,31.54,19.5c17.81,7.17,32.76,5.21,37.8-7.29,4.78-11.87-2.2-23.4-22.17-40.53-28.9-24.71-45.41-49.53-33.2-79.83,11.08-27.5,39.14-41.25,75.22-34.34L2150,885l30.62,12.34-11.08,27.49a144.09,144.09,0,0,1,26.85,15.6,19.45,19.45,0,0,1,3.92,27.07h0a19.45,19.45,0,0,1-27.74,3.75,103.82,103.82,0,0,0-25.88-15c-20.31-8.18-30.4-2.08-33.92,6.67-4.16,10.31,4.13,21.28,26.66,42,31.89,28.1,40,51.33,28.63,79.45-11.2,27.8-40.45,43.62-78.9,35.39l-12.84,31.87Z" transform="translate(-161.3 -58.58)"/><path class="cls-1" d="M1388.51,1947.86H786.15a43.46,43.46,0,0,1-43.46-43.46h0A43.46,43.46,0,0,1,786.15,1861h602.36A43.46,43.46,0,0,1,1432,1904.4h0A43.46,43.46,0,0,1,1388.51,1947.86Z" transform="translate(-161.3 -58.58)"/><path class="cls-4" d="M1479.05,1861.84H912a43.45,43.45,0,0,1-43.45-43.46h0A43.45,43.45,0,0,1,912,1774.93h567.07a43.45,43.45,0,0,1,43.45,43.45h0A43.45,43.45,0,0,1,1479.05,1861.84Z" transform="translate(-161.3 -58.58)"/><rect class="cls-1" x="652.06" y="1629.38" width="627.37" height="86.94" rx="28.46"/><rect class="cls-4" x="649.71" y="1542.72" width="628.45" height="86.91" rx="27.97"/><path class="cls-1" d="M1415.68,1606.41h-550A43.45,43.45,0,0,1,822.25,1563h0a43.45,43.45,0,0,1,43.45-43.45h550a43.45,43.45,0,0,1,43.45,43.45h0A43.45,43.45,0,0,1,1415.68,1606.41Z" transform="translate(-161.3 -58.58)"/><path class="cls-4" d="M1391.94,1520.6H842a43.46,43.46,0,0,1-43.45-43.46h0A43.45,43.45,0,0,1,842,1433.69h550a43.45,43.45,0,0,1,43.45,43.45h0A43.45,43.45,0,0,1,1391.94,1520.6Z" transform="translate(-161.3 -58.58)"/><rect class="cls-4" x="688.8" y="1207.22" width="611.99" height="86.91" rx="28.55"/><rect class="cls-1" x="757.48" y="1290.78" width="589.72" height="86.91" rx="28.02"/><circle class="cls-2" cx="708.09" cy="1705.2" r="255.14" transform="translate(-1159.67 941.55) rotate(-45)"/><path class="cls-4" d="M853.23,1547.81c86.92,80.17,92.4,215.61,12.24,302.53s-215.61,92.4-302.53,12.24-92.4-215.61-12.23-302.53S766.31,1467.65,853.23,1547.81Z" transform="translate(-161.3 -58.58)"/><path class="cls-5" d="M848.5,1772.06a17,17,0,0,1-.82,21.58c-10.61,11.92-27.93,26.32-49.71,37-31.85,15.64-68.43,20.42-103,8.63-21.58-7.37-42.15-22.43-57.63-43l-18.82,9.24a12.9,12.9,0,0,1-17.26-5.89l-.24-.49a12.91,12.91,0,0,1,5.89-17.27l15.45-7.58c-3.09-5.07-5.23-8.21-6.65-11.1a127.7,127.7,0,0,1-6.85-17.61L593,1753.42a12.91,12.91,0,0,1-17.27-5.89h0a12.9,12.9,0,0,1,5.9-17.27l19.3-9.48c-5.59-24.8-4.69-49.8,2.68-71.39,12.53-36.69,40.14-64.62,73.44-81,19.41-9.53,35.76-13.38,49.16-14.83a17.41,17.41,0,0,1,19.1,14.8l0,.29a17.45,17.45,0,0,1-15,19.76,124.79,124.79,0,0,0-38.18,12.07c-21.23,10.42-39.15,27.61-48,52.3-4.92,14.4-6.24,31.22-1.31,47.36l108.59-53.31a12.89,12.89,0,0,1,17.26,5.9h0a12.91,12.91,0,0,1-5.89,17.27L649.43,1725.7c2.12,5.55,4.24,11.1,5.9,14.47,2.14,4.35,4.27,8.69,7.59,14.24l113.65-55.79a13.17,13.17,0,0,1,17.63,6h0a13.17,13.17,0,0,1-6,17.63l-108.82,53.42c10.25,12.34,22.93,21.08,35.88,25.51,25.66,8.36,48.28,5.64,72.41-6.21a142,142,0,0,0,35.55-24.88,17,17,0,0,1,25.3,2Z" transform="translate(-161.3 -58.58)"/><path class="cls-5" d="M848.47,1020.53a13.48,13.48,0,0,1-2.31,17c-9.29,8.58-24.08,18.62-42.09,25.38-26.35,9.89-55.6,10.85-82-1.12-16.47-7.48-31.55-21-42.18-38.37l-15.57,5.84a10.23,10.23,0,0,1-13.18-6l-.15-.4a10.23,10.23,0,0,1,6-13.18l12.78-4.8c-2-4.24-3.5-6.88-4.4-9.28a101.78,101.78,0,0,1-4-14.42l-13.18,4.94a10.23,10.23,0,0,1-13.18-6h0A10.25,10.25,0,0,1,641,967l16-6c-2.5-20,.14-39.68,7.62-56.16,12.72-28,36.67-47.92,64.22-58.26,16.06-6,29.26-7.81,40-7.92a13.8,13.8,0,0,1,13.94,13.15V852a13.85,13.85,0,0,1-13.34,14.45,99,99,0,0,0-31.07,6.59c-17.57,6.59-33,18.78-41.91,37.59-5,11-7.34,24.16-4.69,37.29l89.84-33.72a10.23,10.23,0,0,1,13.17,6h0a10.23,10.23,0,0,1-6,13.18l-93.83,35.21c1.25,4.54,2.5,9.08,3.55,11.88,1.35,3.59,2.7,7.19,4.89,11.83l94-35.29a10.44,10.44,0,0,1,13.45,6.11h0a10.45,10.45,0,0,1-6.11,13.45l-90,33.79c7.14,10.53,16.48,18.41,26.36,22.9,19.62,8.58,37.69,8.18,57.65.69a112.72,112.72,0,0,0,30-16.91,13.48,13.48,0,0,1,19.82,3.49Z" transform="translate(-161.3 -58.58)"/><path class="cls-4" d="M1682.22,720.28l28.67-14.51,28.2,15.39a4.42,4.42,0,0,0,6.48-4.55l-4.94-31.75L1764,662.79a4.42,4.42,0,0,0-2.33-7.57l-31.71-5.1-13.78-29a4.41,4.41,0,0,0-7.91-.12l-14.67,28.58-31.86,4.13a4.42,4.42,0,0,0-2.56,7.5L1681.81,684l-5.92,31.58A4.41,4.41,0,0,0,1682.22,720.28Z" transform="translate(-161.3 -58.58)"/><polygon class="cls-5" points="945.62 79.1 915.99 82.11 905.89 34.98 862.04 34.03 848.71 0 831.48 6.75 849.3 52.27 890.87 53.16 901.38 102.19 945.95 97.67 945.62 79.1"/><path class="cls-1" d="M1715.62,843.94l31.69,10.45s50.25-16.28,55.2-26.52,6.35-35.1,13.49-35.77,21,1.64,24.26,18.65c2.39,12.35-15.69,48-12.86,51.83,1.76,2.37,19.81,8.9,33.07,13.46A24.66,24.66,0,0,1,1876.81,896v0a13.6,13.6,0,0,1-8.5,14.61l-9.11,3.52,2.91,9.42a13.6,13.6,0,0,1-8.6,16.86l-7,2.37,2.25,5.73a13.59,13.59,0,0,1-8.77,18l-6.17,1.79.26,1.65a13.57,13.57,0,0,1-9.89,15.19l-6.12,1.61-84.4-27.86a60.28,60.28,0,0,1-21.4-12.42l-28-14.8a7,7,0,0,1-3.26-8.46l26-74.84A7,7,0,0,1,1715.62,843.94Z" transform="translate(-161.3 -58.58)"/><path class="cls-4" d="M699.49,741.8c-.41-1.17-10.34-18.14-23.15-36.58-59.6-85.87-148-168.63-251.63-165.52l-.07-.63c46.86-5.14,92.77,7.34,133.08,29.58C624.21,604.5,689,672.8,724.44,725.31Z" transform="translate(-161.3 -58.58)"/><path class="cls-7" d="M1381.1,634.66s3-6.15,2.85-20.34c-.22-17.55-3.74-44.05-4.44-46.4-1.27-4.23,55.5-22,55.5-22s91.09-4.66,104.65-14.83,25-14.35,18.65-3.81c-11.44,19.07-38.14,47-44.07,50.84s-76.69,21.61-78,21.61-.85,44.49-.85,44.49Z" transform="translate(-161.3 -58.58)"/><path class="cls-5" d="M1440.2,615.7s-59-10-60.06-4.13c-23.83,130.49-27.87,173.63-30.5,175-9,4.62-137.36-108-158.58-115.42-10.14-3.53-21.19-2.94-31.77-2.63-25.23.74-16.73.14-30,.79l0,0-1.13.08.14,23.74c28.43,25.58,93.52,413.07,99,412.81,6.13-.29,134.78,32.09,132.51,21.25-.36-1.76-87.22-72.83-111.85-175.41-8.27-34.43-12.35-71.51-16.84-104,28.59,14.33,140.24,69.28,157.93,62C1444.08,887.26,1440.2,615.7,1440.2,615.7Z" transform="translate(-161.3 -58.58)"/><path class="cls-7" d="M1661.76,1303.7s119.7,93.76,123.69,110.39c5.76,23.94,115.36-7.54,88.93-12.41-6.08-1.12-25.54-6.06-27.14-6.91-8.56-4.58-115.07-132.92-115.07-132.92Z" transform="translate(-161.3 -58.58)"/><path class="cls-8" d="M1925.78,1401.68l-76.42-6.22s-21.85,18.08-63.83,18.92A97.9,97.9,0,0,0,1782,1456c.55,3.87,1.2,15.55,5.09,15.29,14.13-1,51.74-10.32,94.61-18.89,0,0,57.61-12.2,90.88-32.11S1925.78,1401.68,1925.78,1401.68Z" transform="translate(-161.3 -58.58)"/><path class="cls-9" d="M1125.43,1068.5s87.65,14.73,184.6-8c112.17-26.24,236.21-50.5,272.55-29.37,29.26,17,211.94,293,211.94,293L1724,1375.7l-201.14-225.24s-256.63,94.69-314.26,84.2C1077.3,1210.76,1075.44,1105.93,1125.43,1068.5Z" transform="translate(-161.3 -58.58)"/><polygon class="cls-9" points="1059.95 954.23 1147.66 1058.45 984.96 1108.03 964.12 1009.92 1059.95 954.23"/><path class="cls-7" d="M1399.5,1488.89s-5.34,144.78-8.64,169.29,61.43,97.94,53.16,72.36c-1.9-5.88-6.8-25.35-6.81-27.17,0-9.7,24-174.85,24-174.85Z" transform="translate(-161.3 -58.58)"/><path class="cls-8" d="M1468.44,1775.77l-30.83-70.21s-26.29-10.63-47-47.17a97.89,97.89,0,0,0-38.27,16.67c-3.14,2.32-24.55,18-23.06,21.59,5.49,13.29,34.64,41.77,66.52,72.87,0,0,45.18,36.45,78.51,56.27S1468.44,1775.77,1468.44,1775.77Z" transform="translate(-161.3 -58.58)"/><path class="cls-3" d="M1541.57,1203.47c-30.66-40.88-278-79.7-278-79.7l-69-132.57L1042,1085.26s15.25,121.37,26.7,153.8c15.25,43.21,117.75,45.42,180.36,44.77,57.61-.59,162.83,11.15,162.83,11.15l-35.59,314s70,15.92,89.61,13.35C1468.16,1622,1579.7,1254.31,1541.57,1203.47Z" transform="translate(-161.3 -58.58)"/><path class="cls-10" d="M1129,669.61l-86.06,4.72s-2,.69-2.57.8c-7,1.3-.64,252.08,5.61,345.75s18.93,133,18.93,133,116.72-20.72,152.53-34.62c14.87-5.77,50.85-50.75,50.85-50.75s-36.76-49.42-55.27-129.68c-14.28-61.91-31.89-171.65-42-194.55C1147.9,691.68,1129,669.61,1129,669.61Z" transform="translate(-161.3 -58.58)"/><path class="cls-7" d="M1045.39,598.44l-2.44,76s55.7,96,84.3,82.61c24-11.23,2.7-84.24,2.7-84.24s-4.15-16.74-9.92-36c-4-13.44-7.37-28-7.13-38.68C1113.5,572.17,1045.39,598.44,1045.39,598.44Z" transform="translate(-161.3 -58.58)"/><path class="cls-8" d="M1111.94,425.14s28.39,42.79,30.51,78.81-5.51,60.58-5.51,60.58l-91.09-108.88Z" transform="translate(-161.3 -58.58)"/><path class="cls-2" d="M1151.88,496.58c1.28,12.61-3.62,23.44-11,24.18s-14.31-8.86-15.59-21.48,3.62-23.43,10.94-24.18S1150.6,484,1151.88,496.58Z" transform="translate(-161.3 -58.58)"/><path class="cls-7" d="M1016.37,473.09c-2.08-.44-1.88,104.39,28.5,129.05s83.27,26.84,98.72,2c17.08-27.48.83-137.94-44.36-161.4S1016.37,473.09,1016.37,473.09Z" transform="translate(-161.3 -58.58)"/><path class="cls-8" d="M1008.67,408.09c-23.2,20.33-34.43,35.19-50.12,71.35-19.3,44.46,19,90.52,51.09,108.83S1044.47,629,1044.47,629l1.27-14c1.38-10.86-1.91-17-5-23.62-2.73-5.84-11.51-25.86-14.93-31.14-9-13.93-10.82-16.95-6.36-30.19,3.44-10.19-.54-32.67,4.77-49.47l43.21-9.32s27-6.5,40.7-22.25C1147.37,403.83,1069.84,353.38,1008.67,408.09Z" transform="translate(-161.3 -58.58)"/><path class="cls-7" d="M1029.75,541.58c5.32,11.5,4.22,23.34-2.47,26.44s-16.42-3.73-21.74-15.23-4.22-23.34,2.47-26.43S1024.43,530.08,1029.75,541.58Z" transform="translate(-161.3 -58.58)"/><path class="cls-4" d="M447.7,579.15l-7-48.3L476.5,497.7a6.7,6.7,0,0,0-3.42-11.53L425,477.92l-20.46-44.3a6.7,6.7,0,0,0-12-.31L369.78,476.5l-48.45,5.77a6.71,6.71,0,0,0-4,11.34l34.06,34.95-9.49,47.87a6.7,6.7,0,0,0,9.55,7.31l43.76-21.59L437.8,586A6.7,6.7,0,0,0,447.7,579.15Z" transform="translate(-161.3 -58.58)"/><path class="cls-11" d="M735.27,252.4c4.91,20.18,13.77,52.07,13.77,52.07-.7,8.77-3.29,45.26-6.37,90l65.73-26.31s-.79-72.87,2.15-77.33c2.48-3.77,6.64.94,26.79-27.89,5.82-8.33,6.91-23.19,6.91-23.19s1.19-18.31-2.92-20-8.82,1-10.31,4.19-1.1,10.53-2.59,13.69-11,7-15,6.78.5-54.14.5-54.14,2.23-15.3,3.37-20.3c1-4.27,4.85-16.78,4.85-16.78s4.56-18.16-1.08-19.54c-3.32-.82-11.79,13.93-17.59,29.58-6.25,16.86-9.8,34.74-11.58,34.5-4.2-.57-2-30.14-2-30.14S794.11,154,794,147.62c4-7.83,6.57-22.37-.38-23.57-1.29-.22-10.45,18.24-10.45,18.24s-3.61,13-5.7,19.07c-3.71,10.71-4.27,27.63-6.2,35.09-1.61,6.21-3.06,3.66-3.72,3.92s.38-8.36,1.41-20.13c.51-5.92-.17-12.76,1.49-19.51,1.53-6.25,2.41-15.19,2.81-20.6,1.13-15.29-8.5-13.73-11.83.26-1.27,5.33-2.6,11.14-3.93,17-5.18,22.93-5,45-7.5,45.2-3.21.24-1.1-40-1.1-40s-4.93-22.27-9.82-1.6a180.94,180.94,0,0,0-5,44.39C734.59,211.29,730.36,232.22,735.27,252.4Z" transform="translate(-161.3 -58.58)"/><path class="cls-5" d="M1042.83,674.46s-85.2-4-107.21-14c-13.35-6-123-94.38-123-94.38l1.23-236.51-77.1-5.87s-40,261.43-26.13,290c14.3,29.55,174.77,151.2,206.86,204,18.49,30.42,57,444,62.89,447.77,41.52,21.61,169.74,43.19,166.72,30.08C1063.64,933.36,1042.83,674.46,1042.83,674.46Z" transform="translate(-161.3 -58.58)"/><circle class="cls-1" cx="1262.48" cy="256.69" r="256.41"/><circle class="cls-4" cx="1423.79" cy="315.27" r="215.16" transform="translate(32.79 1040.53) rotate(-45)"/><path class="cls-5" d="M1357.17,453.42l12.25-33.77a174.33,174.33,0,0,1-39.81-23,21.86,21.86,0,0,1-4.59-29.55l.78-1.14a21.82,21.82,0,0,1,31.66-4.79,127.45,127.45,0,0,0,36.15,20.62c20.26,7.34,37,4.55,42.11-9.67,4.9-13.5-3.38-26.16-26.46-44.59-33.4-26.58-52.9-53.76-40.4-88.24,11.34-31.28,42.27-47.82,83-41.49L1464.12,164,1499,176.64l-11.34,31.28a161.14,161.14,0,0,1,30.74,16.44,21.83,21.83,0,0,1,5.47,30.21h0a21.85,21.85,0,0,1-31,5.3,116.17,116.17,0,0,0-29.62-15.75c-23.1-8.38-34.17-1.13-37.78,8.82-4.25,11.73,5.48,23.71,31.57,46,36.88,30.27,46.86,56,35.26,88-11.47,31.64-43.66,50.53-87.12,42.82L1392,466.05Z" transform="translate(-161.3 -58.58)"/><path class="cls-7" d="M1417.22,573s23.72-10.17,30.08-12.29,26.69-5.93,26.69-5.93,31.57-32.41,39.62-33.26-18.43,35.38-18.43,35.38l-11,10.59s17.79-15.25,21.18-17.37,30.09-40.68,36.87-38.13-11.45,29.66-20.34,44.06-49.58,23.3-49.58,23.3Z" transform="translate(-161.3 -58.58)"/><path class="cls-4" d="M1700.78,677.68c0,6.36-144.13,8.11-174,135.88l-19.21-6.31C1550.37,677.36,1693,682.59,1700,677.82a.83.83,0,0,0,.13-.14Z" transform="translate(-161.3 -58.58)"/><path class="cls-4" d="M2307.09,1499.65l4.95-17c26.19-4.95,48.75-22.79,56.17-48.34a151.24,151.24,0,0,0,5.23-24.35l-35.09-10.2,6.24-21.47,31.69,9.21c1.26-10.72,3.08-24.6,6.94-37.89,11.69-40.21,46.92-58.42,84.74-47.43a90.45,90.45,0,0,1,25.31,11.37,12.45,12.45,0,0,1,3.39,17.11h0a12.52,12.52,0,0,1-17.08,3.77,75.68,75.68,0,0,0-18.65-8.06c-26.58-7.72-42.83,7.51-49.86,31.7-4.26,14.66-5.39,26.15-6.51,37.65l49.07,14.26-6.24,21.47L2401,1418c-2.74,13.25-5.82,26.39-12.45,37.77-8,13.56-19.75,23.45-34.21,30l-.2.68,89.56,26a12.48,12.48,0,0,1,8.5,15.47l-.26.9a12.48,12.48,0,0,1-15.47,8.5Z" transform="translate(-161.3 -58.58)"/></svg>